<?xml version="1.0" standalone="no"?>
<!DOCTYPE svg PUBLIC "-//W3C//DTD SVG 20010904//EN"
 "http://www.w3.org/TR/2001/REC-SVG-20010904/DTD/svg10.dtd">
<svg version="1.0" xmlns="http://www.w3.org/2000/svg"
 width="2048.000000pt" height="2048.000000pt" viewBox="0 0 2048.000000 2048.000000"
 preserveAspectRatio="xMidYMid meet">

<g transform="translate(0.000000,2048.000000) scale(0.100000,-0.100000)"
fill="#000000" stroke="none">
<path d="M12090 17530 c-41 -11 -100 -28 -130 -39 -30 -11 -143 -45 -250 -76
-256 -74 -310 -91 -603 -187 l-248 -82 6 -33 c3 -18 35 -93 71 -167 69 -145
113 -268 135 -381 17 -83 18 -408 2 -472 -6 -24 -9 -43 -7 -43 18 0 85 45 115
77 66 69 71 87 80 303 8 210 14 241 60 360 69 180 181 305 349 390 75 38 87
43 330 125 244 83 303 109 296 132 -2 10 -7 33 -11 50 -13 65 -64 76 -195 43z"/>
<path d="M10384 17238 c21 -101 33 -148 63 -253 32 -108 36 -136 40 -270 3
-100 0 -198 -11 -295 -49 -447 -174 -962 -259 -1075 -14 -18 -15 -17 -22 30
-60 441 -187 633 -458 694 l-37 9 22 -37 c12 -20 27 -45 34 -56 63 -102 144
-377 179 -605 24 -156 31 -583 12 -788 -8 -90 -17 -166 -20 -169 -13 -12 -78
41 -178 144 -104 108 -136 132 -304 234 -151 92 -324 275 -432 459 -28 47 -73
175 -82 230 l-7 45 -19 -75 c-17 -62 -20 -108 -20 -270 1 -170 3 -206 23 -277
64 -234 188 -477 339 -663 58 -71 238 -309 272 -359 55 -80 123 -228 155 -334
61 -201 81 -363 96 -792 6 -154 15 -334 20 -399 6 -65 9 -121 6 -123 -4 -4
-198 257 -273 368 -181 268 -293 506 -345 734 -16 69 -22 128 -23 250 -1 145
-8 214 -23 239 -6 10 -34 -61 -108 -277 -99 -288 -143 -517 -129 -677 22 -262
153 -565 342 -792 29 -35 236 -243 459 -463 605 -595 643 -643 747 -945 55
-159 71 -265 71 -475 1 -198 -6 -263 -64 -595 -49 -281 -80 -552 -80 -695 0
-112 14 -255 49 -515 11 -79 19 -146 17 -147 -7 -7 -60 44 -95 91 -50 68 -82
133 -114 231 -54 166 -62 230 -61 500 0 259 10 352 54 525 10 41 35 154 55
250 84 405 85 562 9 789 -33 99 -120 273 -164 331 l-20 25 0 -28 c0 -55 -51
-394 -71 -472 -11 -44 -29 -105 -41 -135 -30 -78 -99 -210 -109 -210 -5 0 -9
19 -9 43 0 23 -7 83 -16 132 -48 275 -139 402 -444 614 -178 125 -193 139
-251 257 -29 57 -56 107 -60 110 -12 7 -11 -187 1 -266 27 -169 100 -316 237
-471 48 -56 110 -127 137 -158 108 -123 173 -254 201 -406 21 -107 15 -361
-10 -485 -26 -130 -36 -275 -25 -374 20 -173 47 -256 151 -466 54 -107 95
-198 93 -202 -3 -5 -15 -6 -27 -4 -12 3 -45 7 -74 11 l-52 6 15 -45 c19 -55
82 -128 137 -160 23 -13 98 -43 166 -66 68 -22 148 -52 177 -66 60 -28 159
-113 147 -125 -4 -4 -107 12 -228 36 -121 25 -226 45 -233 45 -20 0 -37 -52
-72 -215 -96 -461 -180 -563 -594 -725 -284 -112 -256 -96 -256 -144 0 -66 16
-80 81 -73 64 8 166 33 349 87 236 68 409 117 620 175 113 31 259 71 325 90
66 18 210 56 320 85 110 28 238 62 285 75 119 33 925 233 1165 290 110 26 281
67 380 90 99 24 272 65 385 91 743 169 1051 252 1365 366 263 96 401 181 452
282 88 173 190 611 269 1161 18 124 26 512 12 548 -7 17 -9 17 -45 -2 -85 -44
-113 -94 -138 -246 -17 -110 -93 -342 -162 -498 -77 -174 -177 -331 -281 -441
-238 -251 -499 -392 -1067 -572 -648 -207 -1232 -326 -1600 -327 -236 -1 -354
28 -421 105 -87 99 -164 413 -199 809 -17 202 -20 466 -4 524 6 22 83 186 171
365 274 556 367 792 413 1059 27 150 14 308 -32 394 l-17 32 -8 -52 c-22 -148
-155 -442 -313 -693 -145 -231 -409 -580 -437 -580 -15 0 -4 290 17 430 20
138 46 230 94 333 65 142 113 201 350 437 378 375 472 504 584 805 45 122 83
262 74 271 -2 3 -50 -56 -106 -129 -192 -255 -289 -342 -642 -574 -50 -34 -79
-47 -79 -38 0 7 20 70 44 139 24 69 41 126 37 126 -3 0 -35 -27 -71 -60 -63
-58 -80 -69 -80 -52 0 4 12 87 27 182 23 149 27 208 27 400 l1 225 -33 95
c-18 52 -53 127 -76 165 -111 179 -137 267 -138 470 -1 121 2 154 25 240 31
118 83 271 165 485 72 189 136 382 157 471 36 159 28 335 -19 413 l-23 38 -17
-82 c-41 -186 -95 -314 -212 -502 -187 -298 -272 -471 -300 -608 -15 -76 -16
-100 -5 -220 7 -74 18 -172 25 -218 7 -46 9 -85 4 -88 -17 -11 -97 42 -158
105 -75 76 -120 150 -215 349 -43 89 -71 138 -76 130 -14 -26 -41 -266 -46
-418 -13 -373 51 -560 315 -910 123 -163 207 -356 231 -536 34 -240 -8 -623
-82 -757 -25 -45 -41 -43 -44 4 -15 197 -73 490 -137 684 -47 142 -105 278
-216 510 -109 227 -170 385 -198 514 -21 100 -25 142 -25 301 -1 239 28 413
119 725 185 638 365 989 649 1271 97 96 166 146 345 249 449 259 595 359 751
514 103 104 164 182 208 269 l22 43 -78 -58 c-43 -31 -89 -67 -103 -78 -71
-56 -264 -147 -440 -206 -308 -103 -436 -172 -600 -323 -113 -103 -140 -126
-151 -126 -6 0 -8 7 -5 17 18 45 107 401 121 479 21 118 21 343 0 453 -52 271
-235 574 -419 693 -69 44 -78 46 -72 16z"/>
<path d="M10190 16964 c-56 -14 -407 -89 -700 -150 -333 -69 -437 -103 -458
-149 -6 -13 -14 -47 -18 -75 l-7 -50 59 0 c33 0 100 9 149 20 412 92 611 78
734 -52 49 -52 76 -104 114 -225 43 -135 68 -185 118 -240 l38 -41 20 43 c27
57 58 181 70 285 22 175 8 474 -29 611 -12 43 -11 43 -90 23z"/>
<path d="M16796 16948 c3 -5 10 -6 15 -3 13 9 11 12 -6 12 -8 0 -12 -4 -9 -9z"/>
<path d="M7100 16704 c-25 -8 -99 -30 -165 -48 -66 -19 -286 -82 -490 -141
-203 -59 -410 -118 -460 -132 -49 -13 -133 -37 -185 -53 -52 -16 -120 -35
-150 -43 -30 -8 -172 -49 -315 -90 -143 -42 -521 -151 -840 -242 -319 -92
-807 -232 -1085 -312 -278 -80 -557 -160 -620 -177 -446 -126 -698 -199 -716
-206 -17 -6 -25 -25 -38 -82 -54 -236 -87 -469 -156 -1098 -22 -201 -56 -473
-75 -605 -36 -249 -91 -651 -170 -1245 -26 -190 -62 -453 -80 -585 -31 -217
-60 -430 -185 -1335 -22 -157 -48 -355 -59 -440 -11 -85 -31 -238 -45 -340
-64 -478 -124 -1006 -114 -1015 2 -3 83 9 179 26 96 17 253 43 349 59 96 16
310 52 475 80 497 84 1414 239 1683 284 140 23 256 38 258 34 9 -14 -128 -402
-457 -1288 -44 -118 -93 -249 -109 -290 -16 -41 -141 -374 -279 -740 -137
-366 -288 -768 -336 -895 -302 -796 -540 -1423 -645 -1700 -50 -132 -111 -292
-135 -355 -196 -523 -318 -843 -380 -1000 -41 -102 -92 -233 -114 -291 -41
-109 -96 -288 -89 -294 1 -2 127 171 278 383 151 212 416 584 589 827 173 242
357 501 409 575 52 74 112 158 132 185 20 28 110 154 200 280 310 436 394 550
474 650 75 92 180 237 458 630 58 83 133 196 167 251 67 111 148 224 611 848
57 77 141 198 185 268 75 119 168 252 550 783 83 116 201 280 261 365 61 85
283 396 494 690 734 1024 1027 1436 1080 1515 30 44 101 145 158 225 148 204
167 232 247 351 76 112 121 196 111 206 -3 3 -103 -9 -223 -27 -120 -18 -321
-47 -448 -66 -126 -19 -315 -47 -420 -63 -104 -17 -327 -51 -495 -76 -389 -58
-748 -111 -1170 -175 -535 -81 -992 -149 -1032 -155 -22 -3 -38 -1 -38 5 0 5
684 1378 1520 3050 836 1672 1520 3042 1520 3045 0 8 -22 5 -70 -11z"/>
<path d="M17215 15661 c-3 -5 -2 -12 3 -15 5 -3 9 1 9 9 0 17 -3 19 -12 6z"/>
<path d="M10954 15178 c-184 -172 -373 -508 -450 -798 -12 -44 -18 -106 -18
-190 -1 -118 1 -128 27 -182 28 -57 47 -74 47 -42 0 26 76 194 128 284 27 47
80 137 117 200 129 217 173 335 199 535 16 124 27 255 21 255 -2 0 -34 -28
-71 -62z"/>
<path d="M15545 13509 c-4 -6 -5 -12 -2 -15 2 -3 7 2 10 11 7 17 1 20 -8 4z"/>
</g>
</svg>
